<svg id="Layer_4" data-name="Layer 4" xmlns="http://www.w3.org/2000/svg" viewBox="0 0 197.66 301.16"><defs><style>.cls-1,.cls-2{fill:#DD5CA2;}.cls-2{stroke:#231f20;stroke-miterlimit:10;}.cls-3{fill:#000;}</style></defs><title>portrait</title><path class="cls-1" d="M9.24,308.75" transform="translate(-7.37 -8.55)"/><polygon class="cls-2" points="1.87 0.5 193.1 0.96 193.1 300.65 1.87 300.2 1.87 0.5"/><path class="cls-3" d="M204.54,209.64a195.87,195.87,0,0,1-43.72-4.42c-3.15-.68-6.27-1.47-9.38-2.3,5.19-8.6.61-20-.1-29.28-.47-6.19.1-12.39.54-18.56a90.13,90.13,0,0,0-.22-18.58,117.09,117.09,0,0,0-4.26-18.09c-1.82-6-3.74-11.93-5.62-17.89l-2.91-9.25c-.9-2.86-1.74-5.75-2.9-8.51a25.13,25.13,0,0,0-9.33-11.3c-4.83-3.27-10.47-5.39-16-7.15-6-1.91-12.43-3.09-18.64-1.6,0,0,0,0-.07,0a4.83,4.83,0,0,0-3.5.84,9.9,9.9,0,0,1-2,1,9.4,9.4,0,0,1-2.75.24A18.36,18.36,0,0,0,75.16,67C70,69.79,65.73,74.25,62.28,78.91c-7.21,9.76-11.23,21.5-15.19,32.85-2.32,6.67-4.52,13.39-6.4,20.2q-1.41,5.1-2.56,10.27a65.72,65.72,0,0,0-1.67,10.23,24.52,24.52,0,0,0,1.5,9.86,67.44,67.44,0,0,1,3.07,9.5c1.32,6.71.53,13.63-.84,20.26-.58,2.81-1.28,5.59-2,8.36a.49.49,0,0,0-.2,0,88,88,0,0,1-23.32,4.75c-2.27.15-4.54.2-6.82.17a.5.5,0,0,0,0,1,89,89,0,0,0,23.77-2.92c2.12-.56,4.21-1.21,6.28-1.92-.9,3.41-1.8,6.81-2.54,10.26-1.1,5.18-1.73,11,.58,16A12.94,12.94,0,0,0,38,230.92c.42.49,1.13-.22.7-.7C35,226,35,219.89,35.85,214.6c1-6.29,3-12.41,4.49-18.6s2.67-12.76,2.3-19.24a36.08,36.08,0,0,0-1.73-9.33c-1-3-2.43-6-3.09-9.12a28,28,0,0,1,.2-10.48c.58-3.36,1.35-6.71,2.17-10,1.64-6.65,3.63-13.21,5.79-19.7,2-6,4.1-12.07,6.41-18a102.31,102.31,0,0,1,7.5-15.79,51.23,51.23,0,0,1,11-13.17,24.49,24.49,0,0,1,8-4.63,15.47,15.47,0,0,1,4.52-.77,10,10,0,0,0,4.3-.67c1.07-.51,2.19-1.46,3.42-1.48a.46.46,0,0,0,.54.23c5.76-1.55,11.72-.63,17.35,1a71.17,71.17,0,0,1,14.55,5.88A25.43,25.43,0,0,1,134,80.93a49,49,0,0,1,3.09,8q1.38,4.42,2.78,8.84,2.78,8.84,5.55,17.65a159.49,159.49,0,0,1,4.53,16.9,75.66,75.66,0,0,1,1.18,18.15c-.29,6.07-1,12.13-1,18.21a60.76,60.76,0,0,0,.72,9.52c.54,3.38,1.31,6.72,1.72,10.13.57,4.8.33,10.08-2.22,14.26l-1.59-.43a.5.5,0,0,0-.27,1l1.27.34q-.27.38-.57.75a2,2,0,0,0-1.55-.65,2.42,2.42,0,0,0-2.27,1.64c-.58,1.46-.29,3.21-.23,4.73l.24,5.81c.24,6,.43,12.08.71,18.13a29.43,29.43,0,0,1-5.42-4.09c-.46-.45-1.16.25-.7.7a28.47,28.47,0,0,1,6.5,10.3,16.62,16.62,0,0,1-5.8.22c-.35-.05-.75.21-.62.61a6.84,6.84,0,0,1,.08,4,2.92,2.92,0,0,0-2.19-.89,3.8,3.8,0,0,0-3.53,2.2c-.94,2.11-.33,4.41-.1,6.61.18,1.77.06,4-1.45,5.13a44.16,44.16,0,0,0-8.58-11.07.5.5,0,0,0-.78.1,6.09,6.09,0,0,0-.36,5.49c-9-3.1-13.47-13.06-13.86-22a42,42,0,0,1,.05-4.49c.46-.23.92-.46,1.37-.71s.06-1.17-.5-.86l-.78.4a90.65,90.65,0,0,1,2.06-12.24c1.36-6.08,2.8-12.14,4.2-18.21q2.31-10,4.63-20c1.45-2.62,2.71-5.35,3.92-8.08a149,149,0,0,0,7.35-20.4.5.5,0,0,0-1-.27,145.39,145.39,0,0,1-6.22,17.8q-1.83,4.32-3.94,8.51c-.21.43-.43.85-.65,1.27a.44.44,0,0,0-.33.34c0,.16-.07.31-.11.47a16.32,16.32,0,0,1-3.87,4.94A20.29,20.29,0,0,1,108,183.2a32.79,32.79,0,0,1-7.23,1.12,36.19,36.19,0,0,1-14.45-2.38,34.41,34.41,0,0,1-13.51-9.31.54.54,0,0,0-.54-.6,70.5,70.5,0,0,1-9.86-22.81c-.24-1-.45-2-.64-3a7.82,7.82,0,0,0-.9-2.83,11.82,11.82,0,0,0-1.84-2,16.4,16.4,0,0,1-1.9-2.18,27.56,27.56,0,0,1-4.31-10.37c-.23-1-.42-2-.59-3a11,11,0,0,1-.24-3.28,2.39,2.39,0,0,1,1.53-2.12,1.43,1.43,0,0,1,1.86.63c.25.59,1.12.08.86-.5a1.62,1.62,0,0,0-.28-.46,41.11,41.11,0,0,1,4.78-11c-.7,3-1.23,6-1.82,9l-1.65,8.33c-.12.62.84.89,1,.26q1.4-7.09,2.81-14.19c.4-2,.82-4,1.36-6a51,51,0,0,1,3.34-4.27A63.27,63.27,0,0,1,73.09,95a37.39,37.39,0,0,1,9.32-5.87,17.07,17.07,0,0,1,11.66-1c.45.14.72-.36.56-.73l-.45-1c3.24-3.12,8.15-2.43,11.9-.74a44.56,44.56,0,0,1,10.08,6.48,52.67,52.67,0,0,1,14,18.25,50.35,50.35,0,0,1,3.88,12.5.41.41,0,0,0,.42.36,1.81,1.81,0,0,0,.09.31c.22.6,1.19.34,1-.26a2.76,2.76,0,0,1,2.76-3.78c2.31.21,2.82,2.61,2.66,4.53-.41,4.81-3,9.29-5,13.55l-3.78,7.86c-.28.58.58,1.08.86.5q2-4.14,4-8.3c1.24-2.58,2.55-5.14,3.55-7.83.87-2.33,1.7-5,1.38-7.56a4,4,0,0,0-4.15-3.75,3.71,3.71,0,0,0-3.13,2.28,52.38,52.38,0,0,0-9.16-20.26A50.17,50.17,0,0,0,106.89,85c-4.13-1.92-9.45-2.74-13.13.51l-3.33-7.63c-.26-.59-1.12-.08-.87.5q1.89,4.32,3.77,8.62c-7-1.65-14,1.94-19.4,6.11a60.94,60.94,0,0,0-10.6,10.45c.29-.77.6-1.53,1-2.28A19,19,0,0,1,68,96c.46-.45-.25-1.16-.71-.7a23.56,23.56,0,0,0-5.55,10c-.07.23-.12.47-.19.71-.64.92-1.26,1.85-1.84,2.81a42.15,42.15,0,0,0-4.59,10.69,3.1,3.1,0,0,0-2.42.2c-1.71.89-1.85,3.09-1.66,4.78a38.85,38.85,0,0,0,3.13,11.64,21.12,21.12,0,0,0,3.16,4.93c.67.77,1.46,1.43,2.16,2.17a5.54,5.54,0,0,1,1.29,3A71.33,71.33,0,0,0,71.48,172.7a.34.34,0,0,0,.06.06,9.82,9.82,0,0,0-1.24,6c.14,2.93.48,5.88.78,8.8a135.6,135.6,0,0,0,2.85,17.94c1.38,5.8,3.13,11.53,4.11,17.42a86.42,86.42,0,0,1,.64,18.54c-.28,5.4-.52,11.44-3.82,16-.64-1.28-1.78-2.65-3.26-2.08-1,.38-1.62,1.6-2.23,2.41l-1.88,2.49c-.48-1.41-1-2.81-1.56-4.18s-1-3.13-2.32-3.82c-1.5-.8-2.19,1-2.74,2.06l-2.23,4.26c-3.56-8.09-13.19-11.25-17.58-18.81a11.2,11.2,0,0,1-1.61-7.44c.11-.62-.86-.9-1-.26-.79,4.71,1.71,9,4.83,12.31s7.22,5.84,10.51,9.12a17.33,17.33,0,0,1,4.27,6.38A.51.51,0,0,0,59,260l2.14-4.07c.36-.7.73-1.4,1.1-2.09.12-.23.25-.62.51-.73s.56.14.75.34a5.37,5.37,0,0,1,.9,1.6c.31.72.62,1.44.9,2.17.56,1.39,1.06,2.79,1.52,4.22a.51.51,0,0,0,.91.12c1.18-1.56,2.32-3.17,3.55-4.69.54-.67,1.14-.83,1.8-.22a4.72,4.72,0,0,1,1.16,1.9c.12.32.58.54.84.23,3.22-3.94,4-9.07,4.38-14a104.62,104.62,0,0,0,.06-18c-.59-5.93-2.16-11.69-3.64-17.44a135.58,135.58,0,0,1-3.43-18.08c-.39-3.38-.7-6.78-1-10.17-.21-2.44-.58-5.34.77-7.53A36.55,36.55,0,0,0,99,185.35c5.15,0,10.75-.95,15.25-3.58a14.85,14.85,0,0,0,4.48-4.08c-2.67,11.54-5.37,23.07-8,34.63a92.09,92.09,0,0,0-2.26,13.73,32.37,32.37,0,0,1-20.09,2.27,30.71,30.71,0,0,1-6.16-2c-.59-.26-1.1.6-.51.86a33.41,33.41,0,0,0,22.93,1.38,34,34,0,0,0,3.76-1.41c-.32,6.31.56,12.56,4,18.17a20.06,20.06,0,0,0,11.71,9.26.5.5,0,0,0,.56-.73,5.14,5.14,0,0,1-.52-5,43,43,0,0,1,8.19,10.86.5.5,0,0,0,.68.18c3.12-1.67,2.41-5.67,2.07-8.54-.2-1.72-.36-4.23,1.44-5.19,1.09-.58,3-.62,3.25.91a.51.51,0,0,0,.92.12,7.76,7.76,0,0,0,.58-5.12,18.13,18.13,0,0,0,5.36-.26,45.51,45.51,0,0,0,1.66,9.11.5.5,0,0,0,1-.14,29.22,29.22,0,0,0-1.43-9.25,17.81,17.81,0,0,0,6.73-3.54.5.5,0,0,0-.22-.83,29.15,29.15,0,0,1-7.15-2.66c0-.88-.06-1.77-.1-2.65q-.39-9.78-.79-19.56c-.08-1.76-.26-3.55-.19-5.32,0-.78.18-1.84,1-2.23.57-.28,1.45-.18,1.58.54a.51.51,0,0,0,.84.22,15.63,15.63,0,0,0,1.39-1.72A197.13,197.13,0,0,0,192,210.39q6.25.33,12.51.25A.5.5,0,0,0,204.54,209.64Zm-51.47,28.24a16.81,16.81,0,0,1-5.57,2.73c-.13-1.65-.22-3.3-.28-5A29.5,29.5,0,0,0,153.07,237.88Zm-6.74,0a30.3,30.3,0,0,0-2.4-4.12c.73.5,1.48,1,2.26,1.41C146.23,236,146.28,236.93,146.33,237.83Z" transform="translate(-7.37 -8.55)"/><path class="cls-3" d="M90.9,120.74a5.75,5.75,0,0,0-1.62-1.13c-.81-.43-1.64-.85-2.47-1.25-3-1.46-6.39-2.74-9.83-2.4-3.69.36-6.67,2.61-9.46,4.88-.5.41.21,1.11.71.71L69,121a.47.47,0,0,0,.24,0,66.15,66.15,0,0,1,10.8-.48,25.38,25.38,0,0,1,5.42.91c.83.24,1.64.54,2.44.86l1.09.44a6.48,6.48,0,0,0,1.45.53,1,1,0,0,0,1.12-.81A2,2,0,0,0,90.9,120.74Zm-.41,1.52a3,3,0,0,1-.39-.15c-.45-.17-.88-.35-1.32-.53a28,28,0,0,0-8.89-2.07,60.69,60.69,0,0,0-9.53.38,14.85,14.85,0,0,1,5.44-2.73c3.06-.71,6.22.17,9,1.39,1.43.62,2.83,1.32,4.19,2.06a3.17,3.17,0,0,1,1.41,1.17C90.49,121.89,90.63,122.15,90.49,122.26Z" transform="translate(-7.37 -8.55)"/><path class="cls-3" d="M122.74,116.26a19.7,19.7,0,0,0-6.9-1.43,14.9,14.9,0,0,0-11.39,4.73.53.53,0,0,0-.06.1c-.22.1-.45.18-.67.29a.47.47,0,0,0-.49-.18c-4.47.87-4.67,6.33-4.59,9.91a40,40,0,0,0,2.56,13.68c.23.59,1.2.33,1-.27a38.1,38.1,0,0,1-2.5-12.49c-.14-3.26-.45-9,3.82-9.87l.05,0a.51.51,0,0,0,.62.13c7-3.41,14.91,0,22.23-.57a.51.51,0,0,0,.5-.5C126.92,117.74,124.27,116.86,122.74,116.26Zm-16.15,2.66a14.11,14.11,0,0,1,8.58-3.09,18.4,18.4,0,0,1,6,.93,23,23,0,0,1,3,1.23,3.12,3.12,0,0,1,1.59,1.31C119.43,119.65,112.8,117.35,106.59,118.92Z" transform="translate(-7.37 -8.55)"/><path class="cls-3" d="M122.36,127.36a6.71,6.71,0,0,1-2.54-1.1,2.68,2.68,0,0,0,1.28-.64.5.5,0,0,0,0-.71.5.5,0,0,0-.7,0l-.09.08h0l-.23.14-.11.06h0a1.13,1.13,0,0,1-.24.08l-.12,0H119a.35.35,0,0,1-.14,0,.56.56,0,0,0-.4.07c-.34-.23-.68-.45-1-.65l-.3-.13a6.59,6.59,0,0,0,1.47-.28.5.5,0,1,0-.26-1,6.41,6.41,0,0,1-1.28.25,8,8,0,0,1-1.38,0,.48.48,0,0,0-.47.34l-.11,0a2.39,2.39,0,0,0,.78-1.26.5.5,0,0,0-.35-.62.5.5,0,0,0-.38,0,.5.5,0,0,0-.23.3,2.25,2.25,0,0,1-.08.24,1.57,1.57,0,0,1-.18.31,1.6,1.6,0,0,1-.26.26l-.16.11a.5.5,0,0,0-.23.3.61.61,0,0,0,0,.14.42.42,0,0,0-.39,0c-.14,0-.28,0-.42,0s0,0,0,0l.3-1.18a.5.5,0,0,0-.35-.62.5.5,0,0,0-.38.05.5.5,0,0,0-.23.3l-.3,1.19a.5.5,0,0,0,0,.34c-.34,0-.67.09-1,.16v-.24a3.57,3.57,0,0,0-.16-.79.52.52,0,0,0-.23-.3.5.5,0,0,0-.38,0,.51.51,0,0,0-.35.62c0,.13.07.28.1.42a3.42,3.42,0,0,1,0,.64,8.58,8.58,0,0,0-2.35,1.25c-1.38,1-2.61,2.64-2.45,4.47.06.63,1.06.64,1,0a4,4,0,0,1,0-.49l0,0a18.1,18.1,0,0,0,4.75.4,3.89,3.89,0,0,0,.9,0,3.83,3.83,0,0,0,1-.25,17.35,17.35,0,0,0,6.33-2.32l0,0a7,7,0,0,0,2.5,1C122.72,128.44,123,127.47,122.36,127.36Zm-15.56,1.11h-.09a5.62,5.62,0,0,1,2.26-2.54,4.2,4.2,0,0,0,.47,2.85l0,.05A15.38,15.38,0,0,1,106.8,128.47Zm7.38-.63a2.72,2.72,0,0,1-1.09.8,15.39,15.39,0,0,1-1.78.2,1.77,1.77,0,0,1-.94-.48,3.18,3.18,0,0,1-.4-2.44.44.44,0,0,0-.24-.41,8.27,8.27,0,0,1,3.75-.85l.25,0A2.27,2.27,0,0,1,114.18,127.84Zm1,.32a3.07,3.07,0,0,0,.47-2,3.74,3.74,0,0,0-.39-1.28,9,9,0,0,1,2.62,1.2l.81.55A17.42,17.42,0,0,1,115.15,128.16Z" transform="translate(-7.37 -8.55)"/><path class="cls-3" d="M117,130.2c-2.67,1.44-5.85,1.12-8.76.83-.64-.07-.63.93,0,1,3.11.31,6.42.57,9.27-1C118.09,130.76,117.58,129.9,117,130.2Z" transform="translate(-7.37 -8.55)"/><path class="cls-3" d="M80.72,123.67c0-.06,0,0,0,0Z" transform="translate(-7.37 -8.55)"/><path class="cls-3" d="M87,128.59c-1.79-.59-2.83-2.31-4.29-3.4l1.08-.41a.57.57,0,0,0,.3-.23.5.5,0,0,0-.57-.73l-1.39.53a.52.52,0,0,0-.39.05.46.46,0,0,0-.16.15,3.82,3.82,0,0,0-.77-.23l-.31,0v-.11a2.27,2.27,0,0,1,.06-.25l0,0a.67.67,0,0,1,.06-.12l.07-.11h0l0,0,0,0c.05-.06.12-.11.18-.17l0,0,.14-.07a.51.51,0,0,0,.18-.69.51.51,0,0,0-.68-.18,2,2,0,0,0-1,1.17,2.11,2.11,0,0,0-.1.61c-.2,0-.4,0-.6,0l0,0-.07,0h0l-.12-.1-.11-.12,0-.06-.18-.28s0-.09-.07-.14l0-.08a2.81,2.81,0,0,1-.08-.31s0-.05,0-.08a.86.86,0,0,0,0-.16c0-.1,0-.21,0-.31s0-.06,0-.08,0-.12,0-.18a.5.5,0,0,0-.35-.61.5.5,0,0,0-.61.35,2.78,2.78,0,0,0,.51,2.5c-.57.15-1.13.34-1.66.53h0l-.06,0-.11-.1-.12-.12,0,0s-.07-.09,0,0,0,0,0,0a.1.1,0,0,1,0,0l-.09-.13s0-.09-.07-.14l0-.07c0-.1-.07-.2-.1-.3l0-.15v0h0c0-.11,0-.22,0-.33a.28.28,0,0,0,0-.1v0a.44.44,0,0,0,0-.1.5.5,0,0,0-.34-.62.51.51,0,0,0-.62.35,2.88,2.88,0,0,0,.67,2.49c-.57.23-1.14.46-1.71.71a.55.55,0,0,0-.56.26l-1.55.7c-.58.26-.08,1.13.51.86l1.4-.64a8.77,8.77,0,0,0,5.61,3.33h.07l.06,0a2.69,2.69,0,0,0,1.38,0,8.73,8.73,0,0,0,2.14-.32c1.47-.4,2.89-1.08,4.46-.89a.41.41,0,0,0,.47-.47A.47.47,0,0,0,87,128.59ZM74.07,127c.75-.33,1.51-.64,2.28-.91l.91-.32a.7.7,0,0,0,0,.14,9.18,9.18,0,0,0,.19,3.46A7.89,7.89,0,0,1,74.07,127ZM81,129.31a2,2,0,0,1-.89.51,5.63,5.63,0,0,1-.71,0l-.29,0a1.52,1.52,0,0,1-.9-1.19,11.44,11.44,0,0,1,0-2.68.42.42,0,0,0-.18-.38,6.69,6.69,0,0,1,1.7-.27.5.5,0,0,0,.65.14l.1-.1a4.72,4.72,0,0,1,.65.15,4.08,4.08,0,0,1,.63.31A3.79,3.79,0,0,1,81,129.31Zm2.06-.06c-.33.11-.65.2-1,.28a4.18,4.18,0,0,0,.68-1.52,5.23,5.23,0,0,0,.1-1.42c.36.33.7.68,1,1a11.32,11.32,0,0,0,1.23,1.08A16.66,16.66,0,0,0,83.07,129.25Z" transform="translate(-7.37 -8.55)"/><path class="cls-3" d="M73.79,125.39l-.05-.12a.58.58,0,0,0-.18-.17l.06,0a1.59,1.59,0,0,1-.13-.13l-.06-.1a1.21,1.21,0,0,1-.05-.18.39.39,0,0,0-.09-.17.29.29,0,0,0-.14-.13.33.33,0,0,0-.19-.06.31.31,0,0,0-.19,0,.47.47,0,0,0-.3.23l0,.12a.39.39,0,0,0,0,.26.65.65,0,0,0,0,.2,1.6,1.6,0,0,0,.13.3,1.69,1.69,0,0,0,.2.25,1.27,1.27,0,0,0,.25.21.33.33,0,0,0,.19.06.35.35,0,0,0,.2,0,.32.32,0,0,0,.17-.09.44.44,0,0,0,.13-.14A.5.5,0,0,0,73.79,125.39Z" transform="translate(-7.37 -8.55)"/><path class="cls-3" d="M99.73,144.66a.5.5,0,0,0-.27,1,4.46,4.46,0,0,1,2.82,1.69,1.82,1.82,0,0,1,.26,1.48c0,.23-.1.28-.28.15a2.11,2.11,0,0,0-.34-.16,1.88,1.88,0,0,0-.62-.15,3.64,3.64,0,0,0-2.57,1.21c-.76.71-1.53,1.58-2.68,1.32-.94-.21-1.31-1.12-2-1.71a1.81,1.81,0,0,0-2.21-.24,3.68,3.68,0,0,1-1.46.6,2.61,2.61,0,0,1-1.54-.39,3.36,3.36,0,0,1-1.46-2.76c0-.64-1-.64-1,0a4.17,4.17,0,0,0,3.12,4.08,3.7,3.7,0,0,0,2.69-.57c.42-.25.76-.34,1.15,0a9.76,9.76,0,0,1,.9,1,2.94,2.94,0,0,0,2.27,1,3.68,3.68,0,0,0,2.4-1.18c.76-.72,1.68-1.77,2.82-1.22a1.21,1.21,0,0,0,1.12.14,1.39,1.39,0,0,0,.64-1C104.09,146.57,101.65,145.2,99.73,144.66Z" transform="translate(-7.37 -8.55)"/><path class="cls-3" d="M90.52,127.25c-.09-.63-1.06-.36-1,.27a88.3,88.3,0,0,1,.92,15.41.5.5,0,0,0,1,0A88.5,88.5,0,0,0,90.52,127.25Z" transform="translate(-7.37 -8.55)"/><path class="cls-3" d="M108.72,161.74a19.61,19.61,0,0,0-5.94-1.42,22.31,22.31,0,0,0-3.27,0,9.65,9.65,0,0,1-3.26-.14,13.8,13.8,0,0,0-2.8-.75,7.84,7.84,0,0,0-2.94.6l-6.39,2.21c-.61.2-.35,1.17.26,1l.49-.17a12,12,0,0,0,7.92,7,13,13,0,0,0,10.77-2,15,15,0,0,0,4.44-4.7.51.51,0,0,0,.06-.31,5.8,5.8,0,0,0,.78-.41A.5.5,0,0,0,108.72,161.74Zm-18.29-.59a7.73,7.73,0,0,1,3-.68,22.17,22.17,0,0,1,3,.82c2,.39,4-.1,6,0a18.16,18.16,0,0,1,4.9,1,16.57,16.57,0,0,1-4.18.77q-2.94.31-5.91.34a62.36,62.36,0,0,1-10.91-.83ZM99,169.08a11.45,11.45,0,0,1-9.65-1.83,10.45,10.45,0,0,1-3.14-3.69,64.56,64.56,0,0,0,11.28.84q3.08,0,6.14-.39a24.34,24.34,0,0,0,3.06-.48A13.66,13.66,0,0,1,99,169.08Z" transform="translate(-7.37 -8.55)"/><path class="cls-3" d="M137.62,124.27c-.65,0-.65,1,0,1,.44,0,.44.86.44,1.15a5.49,5.49,0,0,1-.31,1.7,12.57,12.57,0,0,1-1.69,3c-1.23,1.76-2.61,3.5-2.92,5.69-.09.63.87.9,1,.27.4-2.77,2.55-4.73,3.86-7.08a7.59,7.59,0,0,0,1.1-3.62C139.07,125.48,138.73,124.31,137.62,124.27Z" transform="translate(-7.37 -8.55)"/><path class="cls-3" d="M135.15,128.76a2.49,2.49,0,0,0-1.66-2.25.5.5,0,0,0-.27,1,1.53,1.53,0,0,1,.95,1.47,4.75,4.75,0,0,1-1,2.48c-.34.55.52,1,.87.51A5.23,5.23,0,0,0,135.15,128.76Z" transform="translate(-7.37 -8.55)"/><path class="cls-3" d="M60.86,136.85a22.59,22.59,0,0,1-4-5.06c-.26-.45-.5-.9-.72-1.37a6,6,0,0,1-.59-1.41c0-.13-.08-.38,0-.48s.66,0,.84,0l1.89.15c.65.06.64-.94,0-1s-1.49-.13-2.24-.18a1.39,1.39,0,0,0-1.4.59c-.55,1,.36,2.39.8,3.25a23.39,23.39,0,0,0,4.64,6.22C60.62,138,61.33,137.3,60.86,136.85Z" transform="translate(-7.37 -8.55)"/></svg>